<svg xmlns="http://www.w3.org/2000/svg" width="123.324" height="122.93" viewBox="0 0 123.324 122.93">
  <g id="Group_2274" data-name="Group 2274" transform="translate(-1293 -14257)">
    <g id="Group_2273" data-name="Group 2273" transform="translate(1292.667 14257)">
      <path id="Path_2101" data-name="Path 2101" d="M61.465,0h.4a61.465,61.465,0,0,1,0,122.929h-.4A61.465,61.465,0,0,1,61.465,0Z" transform="translate(0.333)" fill="#fff"/>
    </g>
    <path id="twitter" d="M85.234,67.311c.06.844.06,1.688.06,2.532,0,25.739-19.59,55.4-55.4,55.4A55.021,55.021,0,0,1,0,116.5a40.277,40.277,0,0,0,4.7.241,38.993,38.993,0,0,0,24.172-8.318,19.5,19.5,0,0,1-18.2-13.5,24.553,24.553,0,0,0,3.677.3,20.593,20.593,0,0,0,5.124-.663A19.473,19.473,0,0,1,3.858,75.449v-.241a19.608,19.608,0,0,0,8.8,2.471A19.5,19.5,0,0,1,6.63,51.638,55.343,55.343,0,0,0,46.776,72.013a21.979,21.979,0,0,1-.482-4.461A19.489,19.489,0,0,1,79.99,54.23a38.333,38.333,0,0,0,12.357-4.7,19.417,19.417,0,0,1-8.56,10.73A39.032,39.032,0,0,0,95,57.244,41.853,41.853,0,0,1,85.234,67.311Z" transform="translate(1307 14231.918)"/>
  </g>
</svg>
