<svg id="Group_2269" data-name="Group 2269" xmlns="http://www.w3.org/2000/svg" xmlns:xlink="http://www.w3.org/1999/xlink" width="57" height="42" viewBox="0 0 57 42">
  <defs>
    <clipPath id="clip-path">
      <rect id="Rectangle_863" data-name="Rectangle 863" width="57" height="42" stroke="#000" stroke-width="1"/>
    </clipPath>
  </defs>
  <g id="Group_2268" data-name="Group 2268" clip-path="url(#clip-path)">
    <path id="Path_2100" data-name="Path 2100" d="M28.5,0a6.016,6.016,0,0,0-2.111.385L1.412,9.879A2.29,2.29,0,0,0,.135,12.772a2.2,2.2,0,0,0,1.276,1.343L6.57,16.075a16.03,16.03,0,0,0-2.291,8.286V27a18.5,18.5,0,0,1-1.986,7.573A25.156,25.156,0,0,1,.287,38.1,1.557,1.557,0,0,0,.57,40.2a1.4,1.4,0,0,0,.51.256l5.7,1.5a1.36,1.36,0,0,0,1.1-.188,1.472,1.472,0,0,0,.632-.975A25.407,25.407,0,0,0,8.331,30.6a21.5,21.5,0,0,0-1.2-3.937V24.362a12.875,12.875,0,0,1,2.484-7.639A10.918,10.918,0,0,1,14,13.376L27.977,7.593a1.4,1.4,0,0,1,1.843.843,1.523,1.523,0,0,1-.8,1.94L15.038,16.159a8.164,8.164,0,0,0-2.868,2.026l14.213,5.4a5.988,5.988,0,0,0,4.221,0l24.989-9.468a2.29,2.29,0,0,0,1.276-2.893A2.2,2.2,0,0,0,55.593,9.88L30.613.385A6.016,6.016,0,0,0,28.5,0M11.4,35.244c0,3.306,7.659,6.749,17.1,6.749s17.1-3.44,17.1-6.749L44.234,21.615,31.571,26.431a8.673,8.673,0,0,1-6.146,0L12.761,21.615Z" transform="translate(0)" stroke="#000" stroke-width="1"/>
  </g>
</svg>
