<svg xmlns="http://www.w3.org/2000/svg" width="68.001" height="68.001" viewBox="0 0 68.001 68.001">
  <path id="linkedin" d="M63.143,32H4.842A4.878,4.878,0,0,0,0,36.9V95.1A4.878,4.878,0,0,0,4.842,100h58.3A4.891,4.891,0,0,0,68,95.1V36.9A4.891,4.891,0,0,0,63.143,32ZM20.552,90.286H10.473V57.834H20.567V90.286ZM15.513,53.4a5.844,5.844,0,1,1,5.844-5.844A5.846,5.846,0,0,1,15.513,53.4ZM58.332,90.286H48.253V74.5c0-3.764-.076-8.606-5.237-8.606-5.252,0-6.056,4.1-6.056,8.333V90.286H26.882V57.834H36.55v4.432h.137a10.616,10.616,0,0,1,9.547-5.237c10.2,0,12.1,6.724,12.1,15.467Z" transform="translate(0 -32)"/>
</svg>
